HIERARCHY
ROOT pelvis
{
	OFFSET 0.003123 -0.351407 0.012037
	CHANNELS 6 Xposition Yposition Zposition Zrotation Yrotation Xrotation 
	JOINT left_hip
	{
		OFFSET 0.058189 -0.092763 -0.026001
		CHANNELS 3 Zrotation Yrotation Xrotation
		JOINT left_knee
		{
			OFFSET 0.054695 -0.378753 -0.009396
			CHANNELS 3 Zrotation Yrotation Xrotation
			JOINT left_ankle
			{
				OFFSET -0.043453 -0.403059 -0.031876
				CHANNELS 3 Zrotation Yrotation Xrotation
				JOINT left_foot
				{
					OFFSET 0.047257 -0.057997 0.118216
					CHANNELS 3 Zrotation Yrotation Xrotation
					End Site
					{
						OFFSET 0.000000 0.000000 0.000000
					}
				}
			}
		}
	}
	JOINT right_hip
	{
		OFFSET -0.063267 -0.103908 -0.021250
		CHANNELS 3 Zrotation Yrotation Xrotation
		JOINT right_knee
		{
			OFFSET -0.044210 -0.362380 -0.016824
			CHANNELS 3 Zrotation Yrotation Xrotation
			JOINT right_ankle
			{
				OFFSET 0.015417 -0.410728 -0.020192
				CHANNELS 3 Zrotation Yrotation Xrotation
				JOINT right_foot
				{
					OFFSET -0.038812 -0.058328 0.119049
					CHANNELS 3 Zrotation Yrotation Xrotation
					End Site
					{
						OFFSET 0.000000 0.000000 0.000000
					}
				}
			}
		}
	}
	JOINT spine_1
	{
		OFFSET -0.002763 0.109891 -0.027618
		CHANNELS 3 Zrotation Yrotation Xrotation
		JOINT spine_2
		{
			OFFSET 0.009448 0.131853 -0.005940
			CHANNELS 3 Zrotation Yrotation Xrotation
			JOINT spine_3
			{
				OFFSET -0.011330 0.052235 0.028447
				CHANNELS 3 Zrotation Yrotation Xrotation
				JOINT neck
				{
					OFFSET -0.012164 0.165167 -0.031615
					CHANNELS 3 Zrotation Yrotation Xrotation
					JOINT head
					{
						OFFSET 0.024783 0.160452 0.020737
						CHANNELS 3 Zrotation Yrotation Xrotation
						End Site
						{
							OFFSET 0.000000 0.000000 0.000000
						}
					}
				}
				JOINT left_collar
				{
					OFFSET 0.046364 0.084944 -0.007220
					CHANNELS 3 Zrotation Yrotation Xrotation
					JOINT left_shoulder
					{
						OFFSET 0.119239 0.057728 -0.015461
						CHANNELS 3 Zrotation Yrotation Xrotation
						JOINT left_elbow
						{
							OFFSET 0.254123 -0.072151 -0.042459
							CHANNELS 3 Zrotation Yrotation Xrotation
							JOINT left_wrist
							{
								OFFSET 0.251987 0.023221 -0.002472
								CHANNELS 3 Zrotation Yrotation Xrotation
								JOINT left_index_1
								{
									OFFSET 0.101902 -0.008688 0.019351
									CHANNELS 3 Zrotation Yrotation Xrotation
									JOINT left_index_2
									{
										OFFSET 0.030149 -0.011154 0.001151
										CHANNELS 3 Zrotation Yrotation Xrotation
										JOINT left_index_3
										{
											OFFSET 0.006504 -0.021577 -0.002433
											CHANNELS 3 Zrotation Yrotation Xrotation
											End Site
											{
												OFFSET 0.000000 0.000000 0.000000
											}
										}
									}
								}
								JOINT left_middle_1
								{
									OFFSET 0.109398 -0.006328 -0.003981
									CHANNELS 3 Zrotation Yrotation Xrotation
									JOINT left_middle_2
									{
										OFFSET 0.026472 -0.015218 -0.004641
										CHANNELS 3 Zrotation Yrotation Xrotation
										JOINT left_middle_3
										{
											OFFSET 0.005022 -0.023347 -0.001911
											CHANNELS 3 Zrotation Yrotation Xrotation
											End Site
											{
												OFFSET 0.000000 0.000000 0.000000
											}
										}
									}
								}
								JOINT left_pinky_1
								{
									OFFSET 0.084047 -0.014539 -0.043750
									CHANNELS 3 Zrotation Yrotation Xrotation
									JOINT left_pinky_2
									{
										OFFSET 0.012124 -0.014448 -0.005375
										CHANNELS 3 Zrotation Yrotation Xrotation
										JOINT left_pinky_3
										{
											OFFSET 0.003798 -0.018853 0.000167
											CHANNELS 3 Zrotation Yrotation Xrotation
											End Site
											{
												OFFSET 0.000000 0.000000 0.000000
											}
										}
									}
								}
								JOINT left_ring_1
								{
									OFFSET 0.097444 -0.009268 -0.027345
									CHANNELS 3 Zrotation Yrotation Xrotation
									JOINT left_ring_2
									{
										OFFSET 0.023561 -0.016057 -0.001895
										CHANNELS 3 Zrotation Yrotation Xrotation
										JOINT left_ring_3
										{
											OFFSET 0.004257 -0.023548 0.000814
											CHANNELS 3 Zrotation Yrotation Xrotation
											End Site
											{
												OFFSET 0.000000 0.000000 0.000000
											}
										}
									}
								}
								JOINT left_thumb_1
								{
									OFFSET 0.040636 -0.017977 0.025611
									CHANNELS 3 Zrotation Yrotation Xrotation
									JOINT left_thumb_2
									{
										OFFSET 0.021637 -0.017639 0.011623
										CHANNELS 3 Zrotation Yrotation Xrotation
										JOINT left_thumb_3
										{
											OFFSET 0.024002 -0.008356 0.006548
											CHANNELS 3 Zrotation Yrotation Xrotation
											End Site
											{
												OFFSET 0.000000 0.000000 0.000000
											}
										}
									}
								}
							}
						}
					}
				}
				JOINT right_collar
				{
					OFFSET -0.047695 0.084339 -0.013400
					CHANNELS 3 Zrotation Yrotation Xrotation
					JOINT right_shoulder
					{
						OFFSET -0.102578 0.053524 -0.012669
						CHANNELS 3 Zrotation Yrotation Xrotation
						JOINT right_elbow
						{
							OFFSET -0.271150 -0.036492 -0.026467
							CHANNELS 3 Zrotation Yrotation Xrotation
							JOINT right_wrist
							{
								OFFSET -0.249267 -0.004533 -0.015325
								CHANNELS 3 Zrotation Yrotation Xrotation
								JOINT right_index_1
								{
									OFFSET -0.099881 -0.011783 0.019600
									CHANNELS 3 Zrotation Yrotation Xrotation
									JOINT right_index_2
									{
										OFFSET -0.030148 -0.011154 0.001151
										CHANNELS 3 Zrotation Yrotation Xrotation
										JOINT right_index_3
										{
											OFFSET -0.006505 -0.021577 -0.002432
											CHANNELS 3 Zrotation Yrotation Xrotation
											End Site
											{
												OFFSET 0.000000 0.000000 0.000000
											}
										}
									}
								}
								JOINT right_middle_1
								{
									OFFSET -0.107376 -0.009422 -0.003734
									CHANNELS 3 Zrotation Yrotation Xrotation
									JOINT right_middle_2
									{
										OFFSET -0.026472 -0.015218 -0.004641
										CHANNELS 3 Zrotation Yrotation Xrotation
										JOINT right_middle_3
										{
											OFFSET -0.005022 -0.023347 -0.001911
											CHANNELS 3 Zrotation Yrotation Xrotation
											End Site
											{
												OFFSET 0.000000 0.000000 0.000000
											}
										}
									}
								}
								JOINT right_pinky_1
								{
									OFFSET -0.082027 -0.017634 -0.043503
									CHANNELS 3 Zrotation Yrotation Xrotation
									JOINT right_pinky_2
									{
										OFFSET -0.012123 -0.014448 -0.005374
										CHANNELS 3 Zrotation Yrotation Xrotation
										JOINT right_pinky_3
										{
											OFFSET -0.003798 -0.018852 0.000167
											CHANNELS 3 Zrotation Yrotation Xrotation
											End Site
											{
												OFFSET 0.000000 0.000000 0.000000
											}
										}
									}
								}
								JOINT right_ring_1
								{
									OFFSET -0.095423 -0.012362 -0.027099
									CHANNELS 3 Zrotation Yrotation Xrotation
									JOINT right_ring_2
									{
										OFFSET -0.023561 -0.016057 -0.001895
										CHANNELS 3 Zrotation Yrotation Xrotation
										JOINT right_ring_3
										{
											OFFSET -0.004257 -0.023548 0.000816
											CHANNELS 3 Zrotation Yrotation Xrotation
											End Site
											{
												OFFSET 0.000000 0.000000 0.000000
											}
										}
									}
								}
								JOINT right_thumb_1
								{
									OFFSET -0.038613 -0.021074 0.025861
									CHANNELS 3 Zrotation Yrotation Xrotation
									JOINT right_thumb_2
									{
										OFFSET -0.021636 -0.017639 0.011623
										CHANNELS 3 Zrotation Yrotation Xrotation
										JOINT right_thumb_3
										{
											OFFSET -0.024004 -0.008353 0.006547
											CHANNELS 3 Zrotation Yrotation Xrotation
											End Site
											{
												OFFSET 0.000000 0.000000 0.000000
											}
										}
									}
								}
							}
						}
					}
				}
			}
		}
	}
}
MOTION
Frames: 5
Frame Time: 0.050000
-0.720779 0.913621 0.213749 -27.228288 -67.841158 15.240155 -6.489002 0.779000 -23.525202 7.473965 0.660128 25.073299 19.113739 28.228011 28.228106 0.000000 0.000000 0.000000 6.206068 -0.351483 -2.374708 45.216141 4.035561 56.361279 -1.446568 -17.006081 27.236598 0.000000 0.000000 0.000000 0.463757 -1.141303 16.614872 -4.459734 -4.428610 -19.534209 6.183467 -10.713776 31.030437 3.028421 -0.232717 -6.676011 0.000000 0.000000 0.000000 -2.562453 7.869759 -2.173328 -48.904864 6.325947 0.931126 -27.388252 -65.847126 33.336802 -2.927985 2.359524 -4.998195 -80.541040 11.156746 2.124800 -32.000080 10.837912 14.475227 0.000000 0.000000 0.000000 -87.777537 21.890297 -12.794298 1.202363 -0.398900 -1.314856 0.000000 0.000000 0.000000 -63.942542 -9.300130 -15.822992 -31.606810 9.260924 12.898347 0.000000 0.000000 0.000000 -82.915241 2.389019 -0.124568 -15.561403 -2.902186 -6.612456 0.000000 0.000000 0.000000 2.528524 26.007764 18.704389 40.508632 -10.259065 -17.756703 0.000000 0.000000 0.000000 -5.796945 9.613113 5.095646 49.757348 16.975163 -16.751201 36.651761 66.634475 9.846757 -5.601113 1.161463 28.731913 71.479229 -21.954690 -8.308831 55.685765 -27.851159 7.564585 0.000000 0.000000 0.000000 93.130110 -14.543804 -25.645352 13.777468 -1.750067 1.002989 0.000000 0.000000 0.000000 99.423296 0.112968 -42.744371 -22.716176 -16.801950 20.082472 0.000000 0.000000 0.000000 99.978363 4.077309 -15.595434 -3.045143 0.245984 -3.450409 0.000000 0.000000 0.000000 27.121492 -24.395723 17.500601 -48.584964 -8.266451 -17.913892 0.000000 0.000000 0.000000 
-0.750931 0.892911 0.224968 -27.898091 -68.122757 13.723667 -8.172471 0.230398 -22.508966 10.471158 1.036303 30.274261 22.958510 35.408458 23.510985 0.000000 0.000000 0.000000 0.933545 0.688589 -5.865972 54.146148 1.416444 61.504431 -6.948719 -21.474970 28.439740 0.000000 0.000000 0.000000 1.016046 -1.141264 18.637316 -4.333742 -4.524992 -19.529550 5.835464 -10.565694 32.516116 2.417732 -0.131960 -7.171398 0.000000 0.000000 0.000000 -3.139000 5.342084 -0.170088 -48.091092 1.452330 0.986238 -13.923929 -64.909803 23.380689 -4.633112 1.403566 -6.719645 -79.061756 3.620953 6.387587 -20.095672 5.405128 10.380654 0.000000 0.000000 0.000000 -87.796651 11.970188 -9.724782 12.984859 -1.393030 -4.266922 0.000000 0.000000 0.000000 -60.181198 -15.127915 -17.993429 -17.966701 7.927134 16.018836 0.000000 0.000000 0.000000 -80.401926 -2.995047 1.053972 -3.923424 -2.511870 -8.319841 0.000000 0.000000 0.000000 -6.254954 26.225465 22.519889 41.184794 -9.550598 -16.648678 0.000000 0.000000 0.000000 -4.055882 9.510448 3.881844 46.849318 20.110424 -14.294919 19.566544 66.998604 -1.026081 -6.696519 1.769658 20.382182 54.110414 -8.799004 -2.430407 62.037302 -17.665077 0.531800 0.000000 0.000000 0.000000 79.726986 -3.792239 -16.778021 26.934153 -1.980899 -3.881112 0.000000 0.000000 0.000000 83.578846 17.618033 -32.080982 -5.776874 -10.715609 22.432826 0.000000 0.000000 0.000000 84.878928 18.601454 -6.925533 11.639968 0.139131 -3.870019 0.000000 0.000000 0.000000 31.223309 -13.396191 12.519837 -46.026629 -12.983237 -10.962384 0.000000 0.000000 0.000000 
-0.781082 0.872926 0.229588 -28.117339 -71.376488 11.928532 -8.373480 0.198188 -20.976220 11.353523 3.459830 36.562294 22.454283 39.417086 14.103498 0.000000 0.000000 0.000000 -4.478759 2.213856 -9.753320 57.737374 0.678172 63.837551 -16.474394 -29.632138 23.898441 0.000000 0.000000 0.000000 0.745232 -0.999419 20.086371 -4.554154 -3.993154 -16.889561 6.613531 -9.233939 31.263000 2.974597 -0.377553 -5.603217 0.000000 0.000000 0.000000 -4.039842 4.618243 0.729182 -49.391848 -2.662205 1.148461 -7.270657 -63.250098 18.604310 -1.401417 2.222338 -9.784718 -48.079179 -0.586316 5.258205 -43.365216 4.357001 4.689107 0.000000 0.000000 0.000000 -68.292348 0.445773 -4.139033 -9.361930 -0.359236 -2.581112 0.000000 0.000000 0.000000 -40.238660 -18.309326 -20.647279 -31.390129 1.768359 0.841082 0.000000 0.000000 0.000000 -66.572529 -8.442697 1.722440 -6.791497 -6.825397 -18.385425 0.000000 0.000000 0.000000 12.676071 22.724430 11.145119 -3.718684 -9.817995 -3.492119 0.000000 0.000000 0.000000 -2.715390 11.185228 3.960592 41.676579 24.682971 -11.478523 7.798962 62.459872 -8.265967 -5.780497 2.744135 17.046049 47.094946 10.316356 -3.391678 67.385071 -18.588869 0.688737 0.000000 0.000000 0.000000 86.812299 1.214228 -17.015538 24.479451 -4.859366 5.294332 0.000000 0.000000 0.000000 116.022148 -34.393257 -54.813199 -21.250013 -8.578918 18.496876 0.000000 0.000000 0.000000 101.417031 6.340775 -11.671381 -6.025305 -0.993227 4.827080 0.000000 0.000000 0.000000 27.531576 -3.658156 6.887268 -38.692481 -17.990185 -4.487719 0.000000 0.000000 0.000000 
-0.799927 0.862450 0.221008 -19.366320 -67.829820 3.936776 -11.965425 -0.596225 -22.351202 18.918726 1.492528 43.393265 11.815735 25.462873 1.690111 0.000000 0.000000 0.000000 -11.312945 4.408213 -15.207171 56.831967 0.396794 56.274766 -23.968649 -37.448016 15.812481 0.000000 0.000000 0.000000 -0.492664 -0.046225 24.698801 -2.517553 -4.647495 -17.979486 6.980379 -11.413073 27.968610 2.779851 -0.184885 -6.449253 0.000000 0.000000 0.000000 -6.485653 2.770413 3.009183 -48.851226 -10.957582 0.830222 0.199375 -58.135112 12.697826 -0.071303 0.876433 -10.679099 -40.735154 -0.603366 4.392444 -37.295111 -0.279860 -1.370416 0.000000 0.000000 0.000000 -55.647816 -6.702249 -3.304478 -17.574025 0.552671 0.497628 0.000000 0.000000 0.000000 -20.794886 -22.574363 -27.797274 -39.106823 11.559035 13.203618 0.000000 0.000000 0.000000 -52.907653 -15.071774 -0.581570 -8.880208 -4.421379 -9.270726 0.000000 0.000000 0.000000 11.670616 17.627349 6.493081 -11.816289 1.403508 3.208541 0.000000 0.000000 0.000000 -2.890274 10.764807 4.294435 40.448349 30.678296 -9.917523 4.558265 54.225435 -7.818211 -6.620684 1.824912 20.386681 106.939496 32.052518 5.062638 18.164901 -23.367884 39.826444 0.000000 0.000000 0.000000 121.048331 -15.599454 -34.334659 -32.703743 2.320641 -7.678206 0.000000 0.000000 0.000000 143.095481 -58.723132 -79.517525 -16.788702 -3.677095 8.280161 0.000000 0.000000 0.000000 121.062225 -15.151293 -27.555009 -34.889312 -4.481674 -0.625504 0.000000 0.000000 0.000000 43.369849 14.318322 -3.543494 -59.244060 -29.968835 7.592182 0.000000 0.000000 0.000000 
-0.818771 0.863094 0.211769 -16.370663 -65.491206 1.964010 -11.742997 -0.708200 -22.808043 23.531082 0.330572 48.162363 3.532157 7.830686 -7.836072 0.000000 0.000000 0.000000 -11.875547 5.329600 -19.726099 43.957585 2.818003 51.397825 -19.762299 -32.431921 5.769905 0.000000 0.000000 0.000000 0.939619 -0.049193 26.915653 -4.362637 -4.593399 -18.657215 6.856640 -12.917471 26.371809 2.442011 -0.068937 -6.800810 0.000000 0.000000 0.000000 -11.450007 2.361522 6.062241 -44.100314 -20.011694 -0.335835 4.404692 -53.028874 9.017655 3.243720 1.613113 -14.279080 -46.084648 20.375487 -1.308815 -62.416365 7.896049 11.218814 0.000000 0.000000 0.000000 -71.246881 8.476873 -3.449219 -23.694267 -1.497334 -4.778904 0.000000 0.000000 0.000000 -48.778326 -23.949952 -20.149299 -13.416388 2.007968 2.643346 0.000000 0.000000 0.000000 -65.281019 -15.974452 2.803625 -33.369209 -0.886891 1.535040 0.000000 0.000000 0.000000 17.076414 36.917023 22.198218 3.161584 -26.847263 -16.149082 0.000000 0.000000 0.000000 0.528030 15.005030 4.561829 42.296656 28.779198 -8.903563 -1.357584 48.518756 -8.560242 -3.940271 0.187473 17.807916 119.385918 16.454604 0.726167 -33.229221 0.187320 45.144610 0.000000 0.000000 0.000000 113.768122 -8.897598 -28.557694 -30.637586 3.594312 7.073115 0.000000 0.000000 0.000000 119.542484 -45.048001 -55.125512 -17.326438 -3.430836 8.290299 0.000000 0.000000 0.000000 118.506650 -11.004525 -24.422670 -34.631069 -3.796459 -2.959994 0.000000 0.000000 0.000000 59.741442 5.127016 4.252358 -76.916670 -23.999252 3.189272 0.000000 0.000000 0.000000 
